<svg version="1.1" id="Livello_1" xmlns="http://www.w3.org/2000/svg" xmlns:xlink="http://www.w3.org/1999/xlink" x="0px" y="0px"
	 width="59px" height="81px" viewBox="0 0 59 81" enable-background="new 0 0 59 81" xml:space="preserve">
<path id="Path" fill="#B09987" d="M56.025,40.603c-7.911-12.636-21.678-2.055-23.527,8.938c-1.13,6.678-2.362,3.699-1.541-1.232
	c0.822-4.623,3.391-11.403,8.219-16.335c4.828-4.931,4.623-6.781,1.027-14.794c-1.951-4.418-8.424-14.28-10.684-16.54
	c-2.26,2.26-8.732,12.123-10.685,16.54c-3.596,8.013-3.802,9.966,1.027,14.794c4.931,4.931,7.5,11.712,8.219,16.335
	c0.822,4.93-0.411,7.91-1.541,1.232C24.69,38.549,10.923,27.967,3.013,40.603c-6.883,10.889,5.855,21.78,15.411,13.356
	c4.109-3.596-2.671-1.951-3.904-2.568c-3.595-1.85-2.362-6.576,1.335-7.705c4.52-1.439,9.966,4.52,8.013,8.938
	c-1.027,2.363-3.595,1.541-4.623,3.904c-0.72,1.645,2.877,1.645,2.877,2.465c0,0.104-6.473,3.803-7.192,4.623
	c-2.877,3.699,7.5,4.008,8.219-0.82c0.616-4.109,6.781-3.289,1.027,2.979c-0.409,0.41-4.313,7.602-0.307,5.547
	c0.719-0.309,3.082-3.699,3.699-3.494c0.822,0.412-3.699,9.658-2.671,10.479c0.616,0.412,4.315,1.953,4.726,2.057
	c0.411-0.104,4.109-1.645,4.725-2.057c1.027-0.82-3.595-10.066-2.671-10.479c0.616-0.309,2.979,3.082,3.699,3.494
	c4.006,2.055,0.103-5.035-0.411-5.65c-5.855-6.268,0.309-6.986,1.027-2.98c0.72,4.828,11.198,4.52,8.219,0.822
	c-0.72-0.822-7.192-4.52-7.192-4.623c0-0.822,3.596-0.822,2.877-2.467c-1.026-2.465-3.595-1.541-4.623-3.902
	c-1.951-4.418,3.493-10.377,8.014-8.939c3.596,1.131,4.931,5.855,1.336,7.705c-1.336,0.617-8.014-1.025-3.904,2.568
	C50.17,62.383,62.807,51.492,56.025,40.603L56.025,40.603z"/>
</svg>