<svg version="1.1" id="Livello_1" xmlns="http://www.w3.org/2000/svg" xmlns:xlink="http://www.w3.org/1999/xlink" x="0px" y="0px"
	 width="16px" height="16px" viewBox="0 -0.5 16 16" enable-background="new 0 -0.5 16 16" xml:space="preserve">
<path id="Shape" fill="#174860" d="M15.648,3.133c-0.303-0.392-0.774-0.63-1.264-0.63H4.127l-0.32-1.26C3.622,0.511,2.981,0,2.241,0
	H0.522C0.236,0,0,0.238,0,0.528s0.236,0.528,0.522,0.528H2.24c0.253,0,0.472,0.17,0.539,0.426l2.055,8.275
	C5.02,10.489,5.66,11,6.401,11h6.722c0.74,0,1.396-0.511,1.566-1.243l1.263-5.244C16.07,4.036,15.969,3.525,15.648,3.133
	L15.648,3.133z M14.98,4.213l-1.258,5.354C13.656,9.826,13.438,10,13.186,10H6.496c-0.251,0-0.47-0.174-0.537-0.436L4.5,3.5h9.943
	c0.168,0,0.336,0.087,0.436,0.226C14.98,3.865,15.029,4.039,14.98,4.213L14.98,4.213z"/>
<path id="Shape_1_" fill="#174860" d="M6.5,12C5.678,12,5,12.678,5,13.5S5.678,15,6.5,15S8,14.322,8,13.5S7.322,12,6.5,12L6.5,12z
	 M6.5,14.143c-0.36,0-0.643-0.281-0.643-0.643c0-0.359,0.282-0.643,0.643-0.643c0.36,0,0.643,0.281,0.643,0.643
	C7.143,13.846,6.845,14.143,6.5,14.143z"/>
<path id="Shape_2_" fill="#174860" d="M12.5,12c-0.822,0-1.5,0.678-1.5,1.5s0.678,1.5,1.5,1.5s1.5-0.678,1.5-1.5
	C13.986,12.678,13.322,12,12.5,12L12.5,12z M12.5,14.143c-0.359,0-0.643-0.281-0.643-0.643c0-0.359,0.281-0.643,0.643-0.643
	c0.359,0,0.643,0.281,0.643,0.643C13.143,13.846,12.846,14.143,12.5,14.143z"/>
</svg>