<svg version="1.1" id="Livello_1" xmlns="http://www.w3.org/2000/svg" xmlns:xlink="http://www.w3.org/1999/xlink" x="0px" y="0px"
	 width="20px" height="20px" viewBox="0 0 25 25" enable-background="new 0 0 25 25" xml:space="preserve">
<path fill="#174860" d="M16.479,15.93c1.94-2.005,2.882-4.913,2.259-7.846c-0.848-3.989-4.419-6.881-8.49-6.881
	c-0.607,0-1.218,0.065-1.816,0.19c-2.27,0.482-4.217,1.819-5.48,3.766c-1.262,1.945-1.692,4.268-1.212,6.538
	c0.848,3.99,4.419,6.882,8.49,6.882c0.608,0,1.218-0.064,1.817-0.191c1.201-0.251,2.288-0.747,3.228-1.421l7.086,6.832l1.095-1.139
	L16.479,15.93z M11.715,16.845c-0.49,0.104-0.991,0.156-1.487,0.156c-3.329,0-6.25-2.368-6.944-5.632
	C2.891,9.513,3.244,7.612,4.276,6.019C5.311,4.427,6.903,3.332,8.76,2.94c0.488-0.105,0.99-0.16,1.485-0.16
	c3.328,0,6.249,2.369,6.943,5.631C18.006,12.248,15.555,16.028,11.715,16.845z"/>
</svg>