<svg version="1.1" id="Livello_1" xmlns="http://www.w3.org/2000/svg" xmlns:xlink="http://www.w3.org/1999/xlink" x="0px" y="0px"
width="20px" height="20px" viewBox="-2 -0.5 16 16" enable-background="new -2 -0.5 16 16" xml:space="preserve">
    <path fill="#174860" d="M6,14.727l-0.405-0.516c-3.257-4.156-4.84-7.088-4.84-8.966C0.755,2.353,3.108,0,6,0
        s5.244,2.353,5.244,5.245c0,1.877-1.582,4.81-4.839,8.966L6,14.727z M6,1.029c-2.325,0-4.215,1.891-4.215,4.215
        c0,1.543,1.417,4.169,4.215,7.808c2.796-3.641,4.214-6.265,4.214-7.808C10.215,2.92,8.324,1.029,6,1.029z"/>
    <circle fill="#174860" cx="6" cy="4.895" r="2.23"/>
</svg>
