<svg version="1.1" id="Livello_1" xmlns="http://www.w3.org/2000/svg" xmlns:xlink="http://www.w3.org/1999/xlink" x="0px" y="0px"
	 width="20px" height="20px" viewBox="-0.5 0 16 16" enable-background="new -0.5 0 16 16" xml:space="preserve">
<path fill="#174860" d="M14.491,14.907c-0.732-3.868-2.35-6.229-4.811-7.062C10.773,7.131,11.5,5.9,11.5,4.5c0-2.206-1.794-4-4-4
	c-2.206,0-4,1.794-4,4c0,1.4,0.727,2.631,1.82,3.346c-2.461,0.833-4.079,3.193-4.811,7.062L0.396,15.5h14.207L14.491,14.907z
	 M4.5,4.5c0-1.654,1.346-3,3-3s3,1.346,3,3s-1.346,3-3,3S4.5,6.154,4.5,4.5z M1.613,14.5c0.9-4.035,2.83-6,5.887-6
	s4.986,1.965,5.887,6H1.613z"/>
</svg>
